# xmcd
#
# Track frame offsets:
# 150
# 14928
# 29408
# 45591
# 60840
# 85071
# 107012
# 122888
# 139857
# 165476
# 185716
# 205903
# 226053
# 245308
# 263062
# 286888
# 308655
#
# Disc length: 4353 seconds
#
#
# Revision: 0
# Processed by: cddbd v1.5.1PL2 Copyright (c) Steve Scherf et al.
# Submitted via: FreeRIP 2.945 
#
DISCID=e410ff11
DTITLE=The Jeff Healey Band - See The Light
DYEAR=1980
DGENRE=Blues
TTITLE0=Confidance Man
TTITLE1=My little girl
TTITLE2=River of not return
TTITLE3=don't let your chance go by
TTITLE4=Angel eyes
TTITLE5=Nice problem to have
TTITLE6=Somebody, somebody
TTITLE7=I need to be loved
TTITLE8=Blue jean blue
TTITLE9=That's what they say
TTITLE10=Hideway
TTITLE11=See the light
TTITLE12=Full circle
TTITLE13=Hell to pay
TTITLE14=While my guitar gently weeps
TTITLE15=How much
TTITLE16=Non say
EXTD=Guitar - Jeff Healey \nComment - Fenri
EXTT0=
EXTT1=
EXTT2=
EXTT3=
EXTT4=
EXTT5=
EXTT6=
EXTT7=
EXTT8=
EXTT9=
EXTT10=
EXTT11=
EXTT12=
EXTT13=
EXTT14=
EXTT15=
EXTT16=
PLAYORDER=
